<svg xmlns="http://www.w3.org/2000/svg" width="64.262" height="64.257" viewBox="0 0 64.262 64.257"><defs><style>.a{fill:#9a9a9a;}</style></defs><g transform="translate(0 0)"><path class="a" d="M131.74,40.5l1.839-1.838a2.969,2.969,0,0,0-3.747-4.569l-.387-1.3,1.99-1.991a2.967,2.967,0,0,0-3.908-4.449l-2.358-7.917c.942-.907,1.844-1.79,2.694-2.64a31.371,31.371,0,0,0,5.609-7.3c1.972-3.818,1.147-5.859.107-6.9s-3.08-1.865-6.9.107a31.343,31.343,0,0,0-7.3,5.609c-.85.85-1.733,1.752-2.64,2.694L108.82,7.643a2.967,2.967,0,0,0-4.448-3.908l-1.991,1.991-1.3-.387a2.969,2.969,0,0,0-4.569-3.747L94.673,3.429,85.3.638a.947.947,0,0,0-.94.238L81.952,3.288a.956.956,0,0,0,.11,1.434l23.638,17.3c-5.33,6.009-10.464,12.026-14.089,16.325l-6.953-2.674a.947.947,0,0,0-1.01.214l-2.858,2.858a.948.948,0,0,0,0,1.339L95.082,54.378a.956.956,0,0,0,1.34,0L99.28,51.52a.947.947,0,0,0,.214-1.01L96.82,43.557c4.3-3.625,10.315-8.759,16.325-14.089l1.878,2.566a.947.947,0,0,0,1.529-1.119L114.567,28.2c3.143-2.8,6.246-5.635,9.062-8.3l8.925,29.963L131.323,51.1l-12.267-16.76a.947.947,0,1,0-1.529,1.119l12.92,17.651a.956.956,0,0,0,1.434.11l2.412-2.412a.948.948,0,0,0,.238-.94ZM105.711,5.074a1.074,1.074,0,0,1,1.518,1.518l-.444.444-2.34-.7Zm-7.86-2.143a1.074,1.074,0,1,1,1.518,1.518l-.292.292-2.34-.7Zm-13.778.915L85.3,2.615l29.963,8.925c-2.667,2.816-5.5,5.92-8.3,9.062Zm.48,33.818,5.768,2.219c-1.447,1.723-2.556,3.056-3.211,3.845L82.8,39.417Zm3.9,7.409c3.3-3.984,20.759-24.926,32.26-36.427a29.865,29.865,0,0,1,6.832-5.265c1.546-.8,3.615-1.526,4.69-.451s.348,3.144-.451,4.69a29.879,29.879,0,0,1-5.266,6.832c-11.5,11.5-32.442,28.957-36.426,32.26ZM97.5,50.616l-1.753,1.753-4.311-4.311c.788-.654,2.122-1.764,3.845-3.21ZM130.72,35.8a1.074,1.074,0,0,1,1.518,1.518l-1.113,1.113-.7-2.34Zm-2.143-7.86a1.074,1.074,0,0,1,1.518,1.518l-1.266,1.266-.7-2.34Zm0,0" transform="translate(-70.408 -0.499)"/><path class="a" d="M394.845,433.271l-8.084,8.084a.947.947,0,1,0,1.34,1.34l8.084-8.084a.947.947,0,0,0-1.34-1.34Zm0,0" transform="translate(-337.979 -378.711)"/><path class="a" d="M385.1,402.405a.947.947,0,0,0-1.339-1.339l-5.053,5.052a.947.947,0,1,0,1.34,1.34Zm0,0" transform="translate(-330.938 -350.547)"/><path class="a" d="M371.51,362.148a.947.947,0,0,0-1.34-1.34l-3.537,3.537a.947.947,0,0,0,1.34,1.34Zm0,0" transform="translate(-320.377 -315.342)"/><path class="a" d="M9.7,50.834a.948.948,0,0,0-1.34,0L.277,58.919a.947.947,0,0,0,0,1.339.957.957,0,0,0,1.34,0L9.7,52.174A.948.948,0,0,0,9.7,50.834Zm0,0" transform="translate(0.001 -44.274)"/><path class="a" d="M63.051,83.038a.947.947,0,0,0-1.339,0l-5.053,5.053A.947.947,0,1,0,58,89.431l5.053-5.052A.947.947,0,0,0,63.051,83.038Zm0,0" transform="translate(-49.307 -72.436)"/><path class="a" d="M108.971,112.07a.957.957,0,0,0,1.34,0l3.537-3.537a.947.947,0,0,0-1.34-1.34l-3.537,3.537A.948.948,0,0,0,108.971,112.07Zm0,0" transform="translate(-95.051 -93.56)"/></g></svg>