<svg xmlns="http://www.w3.org/2000/svg" width="53.655" height="56.591" viewBox="0 0 53.655 56.591"><defs><style>.a{fill:#9a9a9a;}</style></defs><g transform="translate(0 0)"><path class="a" d="M257.918,81.254a.839.839,0,0,0,.839.839h1.925a3.573,3.573,0,0,1-1.82,5.043.839.839,0,0,0,.762,1.5c2.6-1.306,3.461-.923,4.649-.13,1.018.68,2.285,1.525,4.727-.109A.839.839,0,0,0,268.068,87c-1.51,1.01-1.962.709-2.863.108a4.662,4.662,0,0,0-2.948-1,5.094,5.094,0,0,0,.238-4.008h1.721a.839.839,0,1,0,0-1.679h-2.45a4.018,4.018,0,0,1,5.357-5.174.839.839,0,0,0,.657-1.544A5.692,5.692,0,0,0,260,80.415h-1.243A.84.84,0,0,0,257.918,81.254Zm0,0" transform="translate(-229.466 -65.116)"/><path class="a" d="M49.705,49.062h-.3a3.758,3.758,0,0,0,0-4.175h.991a3.764,3.764,0,0,0,0-7.529H49.4A3.769,3.769,0,0,0,46.269,31.5h-4.24a16.584,16.584,0,0,0,8.952-18.49.839.839,0,1,0-1.639.359A14.922,14.922,0,0,1,22.928,25.661a0,0,0,0,1,0,0,14.972,14.972,0,0,1-2.247-4.172s0,0,0,0a14.835,14.835,0,0,1-.8-5.85s0,0,0,0a14.672,14.672,0,0,1,.2-1.679,14.928,14.928,0,0,1,28.258-3.588.839.839,0,1,0,1.526-.7A16.62,16.62,0,0,0,20.5,8.1H11.021a3.764,3.764,0,0,0,0,7.529h.041a3.762,3.762,0,0,0,0,4.178H5.247a3.764,3.764,0,0,0-1.923,7,3.761,3.761,0,0,0,2.7,6.379H7.465A3.769,3.769,0,0,0,10.6,39.033h2.054a3.761,3.761,0,0,0,0,4.178H8.184a3.768,3.768,0,0,0-3.132,5.85H4.264a3.764,3.764,0,1,0,0,7.528H49.705a3.764,3.764,0,1,0,0-7.528Zm.686-10.025a2.086,2.086,0,1,1,0,4.171H27.92a2.086,2.086,0,1,1,0-4.171Zm-25.6,4.171h-9a2.086,2.086,0,1,1,0-4.171h9A3.762,3.762,0,0,0,24.787,43.208ZM23.8,44.89H46.269a2.086,2.086,0,1,1,0,4.172H23.8a2.086,2.086,0,1,1,0-4.172ZM46.269,33.183a2.086,2.086,0,0,1,0,4.172H23.8a2.084,2.084,0,0,1-.111-4.166C33.106,33.189,25.715,33.183,46.269,33.183ZM11.021,13.953a2.086,2.086,0,0,1,0-4.172h8.6a16.516,16.516,0,0,0-1.246,4.172Zm7.465,5.854H14.192a2.086,2.086,0,1,1,0-4.172h4A16.6,16.6,0,0,0,18.486,19.807ZM6.027,31.51a2.088,2.088,0,0,1-2.085-2.167,2.12,2.12,0,0,1,2.136-2h4.087a.84.84,0,1,0,0-1.68H5.3a2.119,2.119,0,0,1-2.135-2.006,2.088,2.088,0,0,1,2.084-2.166H18.913a16.692,16.692,0,0,0,1.961,4.172H14.047a.84.84,0,1,0,0,1.68h8.08A16.609,16.609,0,0,0,27.49,31.5C20.359,31.5,7.737,31.51,6.027,31.51ZM10.6,37.355a2.086,2.086,0,0,1-.147-4.166H20.661a3.761,3.761,0,0,0,0,4.166ZM8.184,44.89h12.48a3.76,3.76,0,0,0,0,4.172H8.184a2.086,2.086,0,1,1,0-4.172ZM24.1,54.912H4.264a2.086,2.086,0,1,1,0-4.172H24.1A3.76,3.76,0,0,0,24.1,54.912Zm25.6,0c-24.075,0-22.532.008-22.721-.016a2.085,2.085,0,0,1,0-4.14c.193-.024-1.291-.016,22.721-.016a2.086,2.086,0,1,1,0,4.172Zm0,0" transform="translate(-0.5 0.001)"/><path class="a" d="M202.382,48.045a.84.84,0,0,0-1.06.534,12.134,12.134,0,1,0,1.624-3.208.839.839,0,1,0,1.367.974,10.466,10.466,0,1,1-1.4,2.76A.839.839,0,0,0,202.382,48.045Zm0,0" transform="translate(-178.57 -35.821)"/></g></svg>