<svg xmlns="http://www.w3.org/2000/svg" width="92.248" height="53.801" viewBox="0 0 92.248 53.801"><defs><style>.a{fill:#fff;}</style></defs><path class="a" d="M86.351,121.49c-.29-.061-.563-.118-.806-.181-2.757-.717-4.015-1.11-4.945-2.906l-3.524-7.134a8.063,8.063,0,0,0-6.518-3.965H64.285V99.067A2.686,2.686,0,0,0,61.6,96.384l-43.692.044a2.539,2.539,0,0,0-2.525,2.661v2.435H4.192a4.192,4.192,0,0,0,0,8.384H15.385v4.018H8.056a4.192,4.192,0,0,0,0,8.384h7.328v4.018H11.921a4.192,4.192,0,1,0,0,8.384h3.464v4.2a2.686,2.686,0,0,0,2.683,2.683h4.545a10.046,10.046,0,0,0,19.88,0H60.886c.1,0,.193-.006.291-.013a10.046,10.046,0,0,0,19.882.013h6.528a4.666,4.666,0,0,0,4.661-4.66v-7.908C92.248,122.727,88.7,121.982,86.351,121.49Zm-15.233,15a3.652,3.652,0,1,1-3.652,3.652A3.657,3.657,0,0,1,71.118,136.488Zm-6.833-15.566v-9.727h4.794a6.232,6.232,0,0,1,4.959,3.01l3.135,6.348q.1.193.207.368h-13.1Zm-28.08,19.218a3.652,3.652,0,1,1-3.653-3.652A3.657,3.657,0,0,1,36.205,140.139Z" transform="translate(0 -96.384)"/></svg>